<?xml version="1.0" encoding="UTF-8"?>
<svg xmlns="http://www.w3.org/2000/svg" version="1.1" viewBox="0 0 2200 2200">
  <!-- Generator: Adobe Illustrator 28.7.7, SVG Export Plug-In . SVG Version: 1.2.0 Build 194)  -->
  <g>
    <g id="background">
      <rect width="2200" height="2200" fill="none"/>
    </g>
    <g id="Objects">
      <g>
        <path d="M1225.418,1398.475c-25.162,14.466-37.834,46.039-31.34,76.698,2.262,1.55,4.582,3.004,6.965,4.337,9.857,5.505,20.946,8.88,31.446,8.067,11.003-.853,20.625-6.193,28.755-12.791,25.156-20.42,38.202-54.369,34.23-89.039-24.515.367-49.938,1.159-70.055,12.728ZM1279.977,1404.439l-6.355,6.368c-20.259,20.76-42.846,39.348-67.124,55.241-.13.084-.27.134-.415.151-.356.044-.723-.111-.933-.433-.294-.448-.168-1.052.282-1.346,24.16-15.816,46.637-34.313,66.805-54.98l6.363-6.375c.38-.379.996-.379,1.376-.001.381.38.381.997.001,1.376Z" style="fill: #76d68d;"/>
        <path d="M1314.135,1117.644c-25.162,14.466-37.834,46.039-31.34,76.698,2.262,1.55,4.582,3.004,6.965,4.337,9.857,5.505,20.946,8.88,31.446,8.067,11.003-.853,20.625-6.193,28.755-12.791,25.156-20.42,38.202-54.369,34.23-89.039-24.515.367-49.938,1.159-70.055,12.728ZM1368.694,1123.609l-6.355,6.368c-20.259,20.76-42.846,39.348-67.124,55.241-.13.084-.27.134-.415.151-.356.044-.723-.111-.933-.433-.294-.448-.168-1.052.282-1.346,24.16-15.816,46.637-34.313,66.805-54.98l6.363-6.375c.38-.379.996-.379,1.376-.001.381.38.381.997.001,1.376Z" style="fill: #76d68d;"/>
        <path d="M1253.761,912.738c-25.162,14.466-37.834,46.039-31.34,76.698,2.262,1.55,4.582,3.004,6.965,4.337,9.857,5.505,20.946,8.88,31.446,8.067,11.003-.853,20.625-6.193,28.755-12.791,25.156-20.42,38.202-54.369,34.23-89.039-24.515.367-49.938,1.159-70.055,12.728ZM1308.32,918.702l-6.355,6.368c-20.259,20.76-42.846,39.348-67.124,55.241-.13.084-.27.134-.415.151-.356.044-.723-.111-.933-.433-.294-.448-.168-1.052.282-1.346,24.16-15.816,46.637-34.313,66.805-54.98l6.363-6.375c.38-.379.996-.379,1.376-.001.381.38.381.997.001,1.376Z" style="fill: #76d68d;"/>
        <path d="M1556.31,739.074c-25.162,14.466-37.834,46.039-31.34,76.698,2.262,1.55,4.582,3.004,6.965,4.337,9.857,5.505,20.946,8.88,31.446,8.067,11.003-.853,20.625-6.193,28.755-12.791,25.156-20.42,38.202-54.369,34.23-89.039-24.515.367-49.938,1.159-70.055,12.728ZM1610.869,745.038l-6.355,6.368c-20.259,20.76-42.846,39.348-67.124,55.241-.13.084-.27.134-.415.151-.356.044-.723-.111-.933-.433-.294-.448-.168-1.052.282-1.346,24.16-15.816,46.637-34.313,66.805-54.98l6.363-6.375c.38-.379.996-.379,1.376-.001.381.38.381.997.001,1.376Z" style="fill: #76d68d;"/>
        <path d="M1317.895,1002.23c-17.29,23.312-16.297,57.319,1.901,82.832,2.693.517,5.401.923,8.118,1.195,11.235,1.11,22.75-.225,32.05-5.164,9.746-5.176,16.435-13.915,21.253-23.212,14.907-28.768,13.308-65.102-4.181-95.3-22.328,10.127-45.319,21.007-59.141,39.649ZM1370.296,985.907l-3.283,8.376c-10.281,27.124-23.565,53.186-39.474,77.453-.085.129-.194.231-.32.304-.309.182-.707.187-1.029-.024-.448-.294-.574-.898-.279-1.347,15.832-24.149,29.051-50.084,39.286-77.086l3.287-8.386c.197-.499.761-.746,1.261-.551.501.196.748.762.551,1.261Z" style="fill: #76d68d;"/>
        <path d="M1156.655,712.662c-17.29,23.312-16.297,57.319,1.901,82.832,2.693.517,5.401.923,8.118,1.195,11.235,1.11,22.75-.225,32.05-5.164,9.746-5.176,16.435-13.915,21.253-23.212,14.907-28.768,13.308-65.102-4.181-95.3-22.328,10.127-45.319,21.007-59.141,39.649ZM1209.056,696.339l-3.283,8.376c-10.281,27.124-23.565,53.186-39.474,77.453-.085.129-.194.231-.32.304-.309.182-.707.187-1.029-.024-.448-.294-.574-.898-.279-1.347,15.832-24.149,29.051-50.084,39.286-77.086l3.287-8.386c.197-.499.761-.746,1.261-.551.501.196.748.762.551,1.261Z" style="fill: #76d68d;"/>
        <path d="M1279.794,754.949c-17.29,23.312-16.297,57.319,1.901,82.832,2.693.517,5.401.923,8.118,1.195,11.235,1.11,22.75-.225,32.05-5.164,9.746-5.176,16.435-13.915,21.253-23.212,14.907-28.768,13.308-65.102-4.181-95.3-22.328,10.127-45.319,21.007-59.141,39.649ZM1332.195,738.627l-3.283,8.376c-10.281,27.124-23.565,53.186-39.474,77.453-.085.129-.194.231-.32.304-.309.182-.707.187-1.029-.024-.448-.294-.574-.898-.279-1.347,15.832-24.149,29.051-50.084,39.286-77.086l3.287-8.386c.197-.499.761-.746,1.261-.551.501.196.748.762.551,1.261Z" style="fill: #76d68d;"/>
        <path d="M1408.979,820.148c-28.055,7.449-48.483,34.645-50.166,65.944,1.784,2.085,3.646,4.092,5.598,5.999,8.095,7.872,17.93,14.005,28.278,15.945,10.849,2.029,21.532-.624,31.088-4.895,29.594-13.191,51.003-42.595,56.165-77.106-23.773-6.01-48.527-11.842-70.962-5.887ZM1460.126,840.074l-7.794,4.494c-24.955,14.797-51.582,26.884-79.158,35.938-.145.045-.29.056-.435.033-.357-.045-.669-.29-.792-.658-.167-.513.111-1.059.624-1.227,27.43-9.01,53.935-21.041,78.779-35.76l7.794-4.516c.468-.268,1.059-.1,1.338.357.268.468.1,1.07-.357,1.338Z" style="fill: #76d68d;"/>
        <path d="M1196.123,1271.071c-12.348,26.267-4.661,59.408,18.217,80.827,2.742-.025,5.477-.161,8.194-.431,11.233-1.13,22.257-4.712,30.4-11.39,8.533-6.999,13.365-16.886,16.252-26.951,8.934-31.145.194-66.448-22.913-92.599-19.889,14.336-40.28,29.541-50.149,50.544ZM1244.27,1244.725l-1.565,8.859c-4.724,28.62-12.601,56.791-23.407,83.722-.058.143-.145.264-.253.362-.267.24-.656.323-1.013.179-.498-.2-.74-.767-.539-1.265,10.753-26.799,18.591-54.833,23.294-83.325l1.566-8.87c.094-.528.599-.881,1.128-.789.53.093.884.599.789,1.128Z" style="fill: #76d68d;"/>
        <path d="M1328.61,1249.165c-24.684,15.269-36.332,47.234-28.855,77.667,2.311,1.476,4.677,2.855,7.101,4.111,10.029,5.184,21.221,8.201,31.689,7.05,10.97-1.207,20.415-6.854,28.328-13.711,24.486-21.22,36.432-55.57,31.345-90.095-24.49,1.156-49.874,2.766-69.608,14.977ZM1383.332,1253.37l-6.147,6.569c-19.58,21.402-41.557,40.707-65.311,57.373-.127.088-.266.142-.41.165-.355.055-.726-.088-.947-.403-.308-.439-.202-1.046.239-1.355,23.638-16.585,45.508-35.797,65-57.102l6.154-6.577c.368-.391.983-.411,1.376-.046.393.367.413.984.046,1.376Z" style="fill: #76d68d;"/>
        <path d="M1555.138,1466.309c-28.975-1.698-56.883,17.759-68.262,46.959,1.042,2.536,2.185,5.024,3.447,7.446,5.226,10.008,12.649,18.911,21.875,23.987,9.669,5.319,20.644,6.129,31.061,5.068,32.234-3.285,61.758-24.523,77.444-55.696-20.703-13.134-42.398-26.411-65.565-27.765ZM1597.495,1501.211l-8.806,1.841c-28.325,6.254-57.405,9.415-86.423,9.395-.154,0-.299-.036-.43-.101-.322-.159-.544-.489-.543-.874,0-.536.436-.972.974-.971,28.876.02,57.815-3.126,86.013-9.352l8.816-1.843c.526-.109,1.041.229,1.152.753.11.526-.228,1.043-.753,1.152Z" style="fill: #76d68d;"/>
        <path d="M1780.804,1264.64c-23.241,17.386-32.026,50.253-21.894,79.909,2.432,1.267,4.91,2.431,7.436,3.469,10.447,4.28,21.862,6.298,32.187,4.228,10.82-2.169,19.731-8.627,27.009-16.155,22.52-23.296,31.39-58.567,23.279-92.508-24.293,3.311-49.436,7.153-68.017,21.057ZM1835.684,1264.003l-5.543,7.085c-17.617,23.045-37.806,44.213-59.997,62.909-.119.099-.252.165-.393.2-.348.086-.731-.023-.978-.318-.345-.41-.293-1.024.118-1.37,22.083-18.605,42.174-39.67,59.711-62.612l5.55-7.094c.332-.422.943-.496,1.366-.167.424.331.498.944.167,1.366Z" style="fill: #76d68d;"/>
        <path d="M1877.603,881.821c-16.77,17.885-33.853,36.719-39.518,59.232-7.069,28.144,6.835,59.198,33.396,75.824,2.687-.546,5.341-1.204,7.95-1.996,10.816-3.267,20.941-8.898,27.653-17.005,7.036-8.508,9.879-19.145,10.782-29.571,2.788-32.281-12.567-65.253-40.265-86.484ZM1873.544,1001.612c-.033.145-.089.279-.178.401-.212.279-.58.435-.959.368-.524-.1-.87-.613-.769-1.137,5.408-28.367,7.716-57.381,6.869-86.249l-.167-8.998c-.011-.546.424-.981.959-.992s.981.413.992.948l.156,8.998c.859,28.991-1.461,58.15-6.902,86.662Z" style="fill: #76d68d;"/>
        <path d="M1716.541,669.771c-16.77,17.885-33.853,36.719-39.518,59.232-7.069,28.144,6.835,59.198,33.396,75.824,2.687-.546,5.341-1.204,7.95-1.996,10.816-3.267,20.941-8.898,27.653-17.005,7.036-8.508,9.879-19.145,10.782-29.571,2.788-32.281-12.567-65.253-40.265-86.484ZM1712.482,789.561c-.033.145-.089.279-.178.401-.212.279-.58.435-.959.368-.524-.1-.87-.613-.769-1.137,5.408-28.367,7.716-57.381,6.869-86.249l-.167-8.998c-.011-.546.424-.981.959-.992s.981.413.992.948l.156,8.998c.859,28.991-1.461,58.15-6.902,86.662Z" style="fill: #76d68d;"/>
        <path d="M1640.709,616.026c-10.615-30.608-38.079-54.459-72.021-62.555-8.028,23.171-15.945,47.334-11.942,70.193,5.018,28.579,30.374,51.27,61.406,55.63,2.23-1.595,4.393-3.278,6.445-5.074,8.553-7.393,15.499-16.659,18.32-26.795,2.955-10.638,1.215-21.509-2.208-31.4ZM1613.814,664.943c-.078.346-.357.636-.725.736-.524.123-1.048-.212-1.171-.725-6.623-28.11-16.347-55.541-28.88-81.566l-3.825-8.14c-.234-.502-.011-1.07.468-1.305.48-.223,1.071-.022,1.294.468l3.813,8.151c12.6,26.126,22.368,53.69,29.025,81.945.033.145.033.29,0,.435Z" style="fill: #76d68d;"/>
        <path d="M1767.038,553.114c-10.615-30.608-38.079-54.459-72.021-62.555-8.028,23.171-15.945,47.334-11.942,70.193,5.018,28.579,30.374,51.27,61.406,55.63,2.23-1.595,4.393-3.278,6.445-5.074,8.553-7.393,15.499-16.659,18.32-26.795,2.955-10.638,1.215-21.509-2.208-31.4ZM1740.143,602.032c-.078.346-.357.636-.725.736-.524.123-1.048-.212-1.171-.725-6.623-28.11-16.347-55.541-28.88-81.566l-3.825-8.14c-.234-.502-.011-1.07.468-1.305.48-.223,1.071-.022,1.294.468l3.813,8.151c12.6,26.126,22.368,53.69,29.025,81.945.033.145.033.29,0,.435Z" style="fill: #76d68d;"/>
        <path d="M1810.025,653.077c-8.377,23.043-16.668,47.08-13.014,70.005,4.579,28.655,29.584,51.729,60.545,56.558,2.255-1.56,4.436-3.209,6.523-4.964,8.657-7.261,15.748-16.422,18.728-26.517,3.119-10.59,1.546-21.489-1.727-31.428-10.143-30.772-37.236-55.039-71.055-63.654ZM1853.444,764.796c.026.146.028.291-.006.439-.085.34-.362.628-.737.716-.521.114-1.041-.221-1.155-.743-6.194-28.206-15.492-55.786-27.634-81.991l-3.696-8.206c-.225-.498.003-1.069.491-1.29s1.064-.007,1.285.481l3.685,8.211c12.201,26.313,21.546,54.031,27.766,82.383Z" style="fill: #76d68d;"/>
        <path d="M1077.796,563.181c-25.162,14.466-37.834,46.039-31.34,76.698,2.262,1.55,4.582,3.004,6.965,4.337,9.857,5.505,20.946,8.88,31.446,8.067,11.003-.853,20.625-6.193,28.755-12.791,25.156-20.42,38.202-54.369,34.23-89.039-24.515.367-49.938,1.159-70.055,12.728ZM1132.355,569.146l-6.355,6.368c-20.259,20.76-42.846,39.348-67.124,55.241-.13.084-.27.134-.415.151-.356.044-.723-.111-.933-.433-.294-.448-.168-1.052.282-1.346,24.16-15.816,46.637-34.313,66.805-54.98l6.363-6.375c.38-.379.996-.379,1.376-.001.381.38.381.997.001,1.376Z" style="fill: #76d68d;"/>
        <path d="M1324.898,506.325c-16.77,17.885-33.853,36.719-39.518,59.232-7.069,28.144,6.835,59.198,33.396,75.824,2.687-.546,5.341-1.204,7.95-1.996,10.816-3.267,20.941-8.898,27.653-17.005,7.036-8.508,9.879-19.145,10.782-29.571,2.788-32.281-12.567-65.253-40.265-86.484ZM1320.839,626.116c-.033.145-.089.279-.178.401-.212.279-.58.435-.959.368-.524-.1-.87-.613-.769-1.137,5.408-28.367,7.716-57.381,6.869-86.249l-.167-8.998c-.011-.546.424-.981.959-.992s.981.413.992.948l.156,8.998c.859,28.991-1.461,58.15-6.902,86.662Z" style="fill: #76d68d;"/>
        <path d="M1242.968,420.463c-22.321-23.48-57.189-33.841-91.441-27.178,2.271,24.417,5.053,49.691,18.149,68.849,16.385,23.947,48.855,34.123,78.913,25.262,1.371-2.374,2.645-4.801,3.771-7.284,4.73-10.267,7.224-21.577,5.602-31.972-1.708-10.907-7.787-20.087-14.993-27.677ZM1238.706,476.124c.072.347-.062.726-.356.97-.427.328-1.042.241-1.366-.176-17.654-22.856-37.849-43.812-60.021-62.326l-6.848-5.83c-.421-.36-.453-.97-.113-1.382.344-.401.966-.463,1.372-.108l6.842,5.845c22.275,18.578,42.566,39.637,60.31,62.612.09.118.15.25.18.396Z" style="fill: #76d68d;"/>
        <path d="M1380.327,325.07c-28.724-14.983-65.068-13.491-95.314,3.909,10.058,22.365,20.877,45.375,39.474,59.258,23.259,17.348,57.275,16.457,82.841-1.663.528-2.69.947-5.399,1.208-8.113,1.149-11.246-.155-22.754-5.057-32.063-5.149-9.766-13.874-16.482-23.151-21.328ZM1394.325,379.11c.18.305.176.707-.022,1.033-.297.449-.908.565-1.349.276-24.106-15.905-50-29.189-76.975-39.522l-8.367-3.297c-.515-.204-.743-.771-.555-1.27.196-.491.764-.751,1.262-.547l8.367,3.313c27.092,10.361,53.111,23.711,77.34,39.699.124.082.223.188.298.316Z" style="fill: #76d68d;"/>
        <path d="M1613.96,419.957c-24.774-20.876-60.572-27.328-93.88-16.929,4.949,24.018,10.502,48.831,25.631,66.428,18.926,21.994,52.32,28.528,81.217,16.406,1.101-2.511,2.099-5.064,2.944-7.656,3.569-10.726,4.801-22.242,2.042-32.395-2.9-10.653-9.955-19.106-17.954-25.855ZM1615.862,475.748c.11.337.018.729-.247,1.003-.388.373-1.009.354-1.377-.024-20.067-20.77-42.449-39.371-66.528-55.327l-7.449-5.039c-.458-.312-.557-.914-.265-1.361.298-.437.909-.567,1.351-.259l7.445,5.055c24.188,16.008,46.677,34.701,66.847,55.579.103.107.177.232.222.374Z" style="fill: #76d68d;"/>
        <path d="M1414.94,456.007c-8.377,23.043-16.668,47.08-13.014,70.005,4.579,28.655,29.584,51.729,60.545,56.558,2.255-1.56,4.436-3.209,6.523-4.964,8.657-7.261,15.748-16.422,18.728-26.517,3.119-10.59,1.546-21.489-1.727-31.428-10.143-30.772-37.236-55.039-71.055-63.654ZM1458.359,567.726c.026.146.028.291-.006.439-.085.34-.362.628-.737.716-.521.114-1.041-.221-1.155-.743-6.194-28.206-15.492-55.786-27.634-81.991l-3.696-8.206c-.225-.498.003-1.069.491-1.29s1.064-.007,1.285.481l3.685,8.211c12.201,26.313,21.546,54.031,27.766,82.383Z" style="fill: #76d68d;"/>
        <path d="M1038.967,267.184c8.341,33.886,32.385,61.172,63.075,71.562,9.918,3.357,20.797,5.015,31.409,1.985,10.126-2.891,19.347-9.914,26.673-18.505,1.769-2.079,3.439-4.25,5.02-6.49-4.581-31.002-27.448-56.192-56.072-60.998-22.886-3.846-46.995,4.259-70.105,12.446ZM1059.522,278.025c.225-.487.803-.701,1.291-.478l8.183,3.763c26.099,12.357,53.608,21.876,81.762,28.296.524.119.852.641.733,1.164-.085.375-.375.648-.724.731-.142.034-.291.036-.441.002-28.291-6.451-55.935-16.017-82.152-28.43l-8.174-3.758c-.488-.223-.702-.802-.478-1.291Z" style="fill: #76d68d;"/>
        <path d="M864.738,592.809c.903,10.426,3.747,21.063,10.782,29.571,6.713,8.106,16.837,13.737,27.653,17.005,2.609.792,5.263,1.45,7.95,1.996,26.561-16.625,40.465-47.68,33.396-75.824-5.665-22.513-22.747-41.346-39.518-59.232-27.698,21.231-43.052,54.203-40.265,86.484ZM902.159,539.454l.156-8.998c.011-.535.457-.959.992-.948s.97.446.959.992l-.167,8.998c-.847,28.869,1.461,57.882,6.869,86.249.1.524-.245,1.037-.769,1.137-.379.067-.747-.089-.959-.368-.089-.123-.145-.257-.178-.401-5.441-28.512-7.761-57.671-6.902-86.662Z" style="fill: #76d68d;"/>
        <path d="M971.939,448.14c-1.622,10.395.872,21.705,5.602,31.972,1.126,2.483,2.399,4.91,3.771,7.284,30.058,8.861,62.527-1.315,78.913-25.262,13.096-19.158,15.879-44.432,18.149-68.849-34.252-6.663-69.12,3.698-91.441,27.178-7.206,7.59-13.286,16.77-14.993,27.677ZM991.374,475.728c17.744-22.975,38.035-44.033,60.31-62.612l6.842-5.845c.406-.354,1.027-.293,1.372.108.34.411.308,1.021-.113,1.382l-6.848,5.83c-22.172,18.514-42.368,39.47-60.021,62.326-.324.416-.939.504-1.366.176-.293-.244-.427-.623-.356-.97.029-.146.089-.278.18-.396Z" style="fill: #76d68d;"/>
        <path d="M826.423,346.398c-4.902,9.309-6.206,20.817-5.057,32.063.261,2.714.679,5.423,1.208,8.113,25.567,18.12,59.582,19.01,82.841,1.663,18.596-13.883,29.416-36.893,39.474-59.258-30.247-17.4-66.591-18.892-95.314-3.909-9.277,4.846-18.002,11.562-23.151,21.328ZM835.873,378.793c24.23-15.988,50.248-29.338,77.34-39.699l8.367-3.313c.499-.204,1.067.056,1.262.547.188.499-.04,1.066-.555,1.27l-8.367,3.297c-26.974,10.333-52.869,23.617-76.975,39.522-.441.289-1.052.173-1.349-.276-.199-.325-.203-.728-.022-1.033.075-.128.175-.234.298-.316Z" style="fill: #76d68d;"/>
        <path d="M597.986,445.812c-2.759,10.153-1.527,21.668,2.042,32.395.845,2.592,1.843,5.145,2.944,7.656,28.897,12.122,62.291,5.588,81.217-16.406,15.129-17.597,20.682-42.41,25.631-66.428-33.308-10.4-69.106-3.947-93.88,16.929-8,6.749-15.054,15.202-17.954,25.855ZM614.261,475.375c20.169-20.878,42.659-39.571,66.847-55.579l7.445-5.055c.443-.308,1.053-.178,1.351.259.292.446.193,1.049-.265,1.361l-7.449,5.039c-24.079,15.956-46.462,34.557-66.528,55.327-.368.378-.989.398-1.377.024-.265-.274-.356-.666-.247-1.003.045-.142.119-.266.222-.374Z" style="fill: #76d68d;"/>
        <path d="M743.906,519.662c-3.273,9.94-4.847,20.838-1.727,31.428,2.98,10.094,10.071,19.256,18.728,26.517,2.087,1.755,4.268,3.404,6.523,4.964,30.96-4.829,55.966-27.904,60.545-56.558,3.654-22.925-4.637-46.962-13.014-70.005-33.819,8.615-60.912,32.882-71.055,63.654ZM799.307,485.342l3.685-8.211c.221-.488.798-.702,1.285-.481s.716.792.491,1.29l-3.696,8.206c-12.142,26.205-21.44,53.785-27.634,81.991-.114.521-.634.857-1.155.743-.375-.088-.652-.376-.737-.716-.034-.148-.032-.293-.006-.439,6.22-28.352,15.565-56.07,27.766-82.383Z" style="fill: #76d68d;"/>
        <path d="M1720.432,1399.954c-24.569,15.453-35.979,47.503-28.275,77.88,2.322,1.459,4.698,2.82,7.131,4.058,10.068,5.109,21.282,8.042,31.741,6.814,10.96-1.288,20.364-7.006,28.225-13.921,24.327-21.402,36.017-55.841,30.673-90.326-24.481,1.338-49.852,3.138-69.495,15.496ZM1775.185,1403.751l-6.098,6.615c-19.42,21.547-41.252,41.016-64.881,57.859-.126.089-.265.144-.408.168-.354.058-.727-.082-.95-.396-.311-.436-.21-1.045.228-1.356,23.514-16.761,45.239-36.135,64.572-57.586l6.105-6.623c.365-.394.98-.419,1.375-.056.396.364.421.981.056,1.375Z" style="fill: #76d68d;"/>
        <path d="M1732.492,1014.699c-24.569,15.453-35.979,47.503-28.275,77.88,2.322,1.459,4.698,2.82,7.131,4.058,10.068,5.109,21.282,8.042,31.741,6.814,10.96-1.288,20.364-7.006,28.225-13.921,24.327-21.402,36.017-55.841,30.673-90.326-24.481,1.338-49.852,3.138-69.495,15.496ZM1787.245,1018.496l-6.098,6.615c-19.42,21.547-41.252,41.016-64.881,57.859-.126.089-.265.144-.408.168-.354.058-.727-.082-.95-.396-.311-.436-.21-1.045.228-1.356,23.514-16.761,45.239-36.135,64.572-57.586l6.105-6.623c.365-.394.98-.419,1.375-.056.396.364.421.981.056,1.375Z" style="fill: #76d68d;"/>
        <path d="M1480.086,650.492c-20.606,13.28-41.759,27.408-52.709,47.869-13.693,25.591-7.739,59.087,13.994,81.667,2.743.112,5.475.123,8.207-.011,11.273-.546,22.468-3.546,30.954-9.79,8.876-6.545,14.217-16.179,17.629-26.07,10.537-30.642,3.635-66.357-18.075-93.665ZM1476.83,674.544l-2.029,8.775c-6.2,28.334-15.533,56.054-27.72,82.391-.067.134-.156.256-.268.346-.279.223-.68.29-1.026.123-.48-.223-.702-.803-.468-1.294,12.132-26.204,21.409-53.79,27.586-82.001l2.029-8.775c.123-.524.636-.847,1.16-.725.524.123.859.647.736,1.16Z" style="fill: #76d68d;"/>
        <path d="M1623.668,947.812c-24.569,15.453-35.979,47.503-28.275,77.88,2.322,1.459,4.698,2.82,7.131,4.058,10.068,5.109,21.282,8.042,31.741,6.814,10.96-1.288,20.364-7.006,28.225-13.921,24.327-21.402,36.017-55.841,30.673-90.326-24.481,1.338-49.852,3.138-69.495,15.496ZM1678.42,951.609l-6.098,6.615c-19.42,21.547-41.252,41.016-64.881,57.859-.126.089-.265.144-.408.168-.354.058-.727-.082-.95-.396-.311-.436-.21-1.045.228-1.356,23.514-16.761,45.239-36.135,64.572-57.586l6.105-6.623c.365-.394.98-.419,1.375-.056.396.364.421.981.056,1.375Z" style="fill: #76d68d;"/>
        <path d="M1675.73,1289.87c-22.825,8.932-46.364,18.577-61.161,36.451-18.499,22.368-19.313,56.377-2.487,82.826,2.665.658,5.341,1.204,8.04,1.617,11.162,1.706,22.736.981,32.281-3.457,10.002-4.65,17.149-13.024,22.457-22.056,16.402-27.932,16.737-64.305.87-95.382ZM1667.768,1312.807l-3.724,8.184c-11.708,26.549-26.349,51.861-43.521,75.255-.1.123-.212.223-.346.29-.312.167-.714.145-1.026-.078-.424-.323-.524-.925-.201-1.36,17.094-23.282,31.667-48.471,43.32-74.898l3.724-8.196c.223-.491.803-.714,1.282-.491.491.223.714.803.491,1.294Z" style="fill: #76d68d;"/>
        <path d="M1854.071,1102.131c-28.463,5.681-50.547,31.559-54.177,62.687,1.649,2.191,3.384,4.309,5.217,6.333,7.585,8.362,17.018,15.1,27.227,17.679,10.7,2.703,21.523.713,31.333-2.947,30.357-11.325,53.554-39.336,60.853-73.461-23.35-7.475-47.697-14.837-70.454-10.292ZM1903.874,1125.194l-8.055,4.007c-25.824,13.21-53.162,23.618-81.242,30.933-.15.038-.299.041-.441.011-.352-.072-.65-.336-.746-.708-.135-.519.176-1.051.697-1.186,27.943-7.279,55.148-17.637,80.856-30.788l8.064-4.012c.481-.238,1.065-.042,1.305.438.24.481.043,1.067-.438,1.305Z" style="fill: #76d68d;"/>
        <path d="M1790.807,816.747c-21.32,12.098-43.231,25.011-55.318,44.825-15.109,24.788-11.05,58.563,9.378,82.325,2.732.268,5.464.435,8.195.457,11.284.089,22.636-2.275,31.456-8.04,9.233-6.032,15.109-15.343,19.067-25.033,12.243-30.006,7.371-66.045-12.778-94.534ZM1786.202,840.587l-2.509,8.642c-7.794,27.932-18.666,55.095-32.314,80.697-.078.134-.178.245-.29.335-.29.212-.691.245-1.026.067-.479-.257-.658-.836-.401-1.316,13.581-25.479,24.409-52.508,32.158-80.317l2.52-8.653c.145-.513.68-.814,1.204-.658.513.145.814.691.658,1.204Z" style="fill: #76d68d;"/>
        <path d="M1648.972,1103.533c-19.708,14.572-39.919,30.02-49.545,51.133-12.029,26.417-3.95,59.462,19.189,80.611,2.744-.06,5.47-.23,8.183-.535,11.221-1.262,22.206-4.979,30.264-11.751,8.444-7.096,13.162-17.044,15.932-27.147,8.555-31.242-.603-66.445-24.022-92.311ZM1647.264,1127.752l-1.462,8.872c-4.383,28.683-11.92,56.936-22.4,83.998-.065.145-.146.271-.258.37-.258.243-.651.326-1.011.192-.493-.202-.747-.757-.548-1.261,10.434-26.933,17.938-55.05,22.299-83.601l1.459-8.883c.087-.532.589-.898,1.11-.808.532.087.898.589.811,1.121Z" style="fill: #76d68d;"/>
        <path d="M1188.482,1089.156c-5.934,28.412,9.214,58.874,36.427,74.417,2.662-.658,5.291-1.424,7.871-2.316,10.667-3.699,20.563-9.735,26.939-18.116,6.681-8.783,9.094-19.521,9.574-29.98,1.484-32.367-15.189-64.689-43.721-84.783-16.032,18.55-32.35,38.06-37.091,60.778ZM1229.225,1052.382l.528,8.981c2.028,28.936.884,58.166-3.396,86.866-.023.153-.08.291-.163.41-.204.295-.564.466-.944.409-.53-.079-.898-.574-.818-1.106,4.259-28.56,5.397-57.647,3.378-86.454l-.529-8.992c-.03-.536.379-.996.914-1.029.537-.032.998.378,1.029.914Z" style="fill: #76d68d;"/>
        <path d="M995.211,760.706c-5.228,27.392,10.354,57.229,37.495,72.875,2.608-.58,5.18-1.265,7.703-2.072,10.426-3.352,20.042-8.983,26.14-16.963,6.39-8.363,8.534-18.711,8.779-28.833.759-31.32-16.365-62.991-44.904-83.075-15.388,17.62-31.037,36.165-35.213,58.068ZM1034.543,725.97l.715,8.711c2.625,28.073,2.134,56.362-1.459,84.069-.02.147-.072.28-.151.394-.195.281-.545.439-.921.375-.524-.088-.897-.576-.829-1.089,3.575-27.573,4.064-55.723,1.451-83.671l-.716-8.721c-.042-.52.352-.956.878-.977.528-.019.991.388,1.033.908Z" style="fill: #76d68d;"/>
        <path d="M904.527,1385.746c-3.973,34.67,9.073,68.619,34.23,89.039,8.13,6.599,17.752,11.939,28.755,12.791,10.499.813,21.588-2.562,31.446-8.067,2.382-1.334,4.703-2.788,6.965-4.337,6.494-30.659-6.178-62.231-31.34-76.698-20.117-11.57-45.54-12.362-70.055-12.728ZM920.024,1403.063c.381-.378.996-.378,1.376.001l6.363,6.375c20.168,20.667,42.645,39.164,66.805,54.98.45.294.576.898.282,1.346-.21.322-.577.477-.933.433-.145-.018-.285-.067-.415-.151-24.278-15.893-46.865-34.481-67.124-55.241l-6.355-6.368c-.38-.379-.379-.997.001-1.376Z" style="fill: #76d68d;"/>
        <path d="M815.81,1104.916c-3.973,34.67,9.073,68.619,34.23,89.039,8.13,6.599,17.752,11.939,28.755,12.791,10.499.813,21.588-2.562,31.446-8.067,2.382-1.334,4.703-2.788,6.965-4.337,6.494-30.659-6.178-62.231-31.34-76.698-20.117-11.57-45.54-12.362-70.055-12.728ZM831.307,1122.232c.381-.378.996-.378,1.376.001l6.363,6.375c20.168,20.667,42.645,39.164,66.805,54.98.45.294.576.898.282,1.346-.21.322-.577.477-.933.433-.145-.018-.285-.067-.415-.151-24.278-15.893-46.865-34.481-67.124-55.241l-6.355-6.368c-.38-.379-.379-.997.001-1.376Z" style="fill: #76d68d;"/>
        <path d="M876.184,900.009c-3.973,34.67,9.073,68.619,34.23,89.039,8.13,6.599,17.752,11.939,28.755,12.791,10.499.813,21.588-2.562,31.446-8.067,2.382-1.334,4.703-2.788,6.965-4.337,6.494-30.659-6.178-62.231-31.34-76.698-20.117-11.57-45.54-12.362-70.055-12.728ZM891.681,917.326c.381-.378.996-.378,1.376.001l6.363,6.375c20.168,20.667,42.645,39.164,66.805,54.98.45.294.576.898.282,1.346-.21.322-.577.477-.933.433-.145-.018-.285-.067-.415-.151-24.278-15.893-46.865-34.481-67.124-55.241l-6.355-6.368c-.38-.379-.379-.997.001-1.376Z" style="fill: #76d68d;"/>
        <path d="M573.636,726.345c-3.973,34.67,9.073,68.619,34.23,89.039,8.13,6.599,17.752,11.939,28.755,12.791,10.499.813,21.588-2.562,31.446-8.067,2.382-1.334,4.703-2.788,6.965-4.337,6.494-30.659-6.178-62.231-31.34-76.698-20.117-11.57-45.54-12.362-70.055-12.728ZM589.133,743.662c.381-.378.996-.378,1.376.001l6.363,6.375c20.168,20.667,42.645,39.164,66.805,54.98.45.294.576.898.282,1.346-.21.322-.577.477-.933.433-.145-.018-.285-.067-.415-.151-24.278-15.893-46.865-34.481-67.124-55.241l-6.355-6.368c-.38-.379-.379-.997.001-1.376Z" style="fill: #76d68d;"/>
        <path d="M822.964,962.581c-17.489,30.198-19.088,66.532-4.181,95.3,4.818,9.296,11.506,18.035,21.253,23.212,9.301,4.939,20.815,6.274,32.05,5.164,2.717-.271,5.425-.677,8.118-1.195,18.198-25.514,19.191-59.52,1.901-82.832-13.822-18.642-36.813-29.522-59.141-39.649ZM830.255,984.646c.5-.195,1.064.052,1.261.551l3.287,8.386c10.235,27.002,23.454,52.937,39.286,77.086.295.449.169,1.053-.279,1.347-.321.212-.719.207-1.029.024-.125-.074-.235-.176-.32-.304-15.91-24.267-29.193-50.329-39.474-77.453l-3.283-8.376c-.197-.499.05-1.065.551-1.261Z" style="fill: #76d68d;"/>
        <path d="M861.065,715.3c-17.489,30.198-19.088,66.532-4.181,95.3,4.818,9.296,11.506,18.035,21.253,23.212,9.301,4.939,20.815,6.274,32.05,5.164,2.717-.271,5.425-.677,8.118-1.195,18.198-25.514,19.191-59.52,1.901-82.832-13.822-18.642-36.813-29.522-59.141-39.649ZM868.356,737.365c.5-.195,1.064.052,1.261.551l3.287,8.386c10.235,27.002,23.454,52.937,39.286,77.086.295.449.169,1.053-.279,1.347-.321.212-.719.207-1.029.024-.125-.074-.235-.176-.32-.304-15.91-24.267-29.193-50.329-39.474-77.453l-3.283-8.376c-.197-.499.05-1.065.551-1.261Z" style="fill: #76d68d;"/>
        <path d="M720.059,826.035c5.163,34.511,26.572,63.915,56.165,77.106,9.556,4.271,20.238,6.924,31.088,4.895,10.348-1.94,20.182-8.073,28.278-15.945,1.951-1.907,3.814-3.914,5.598-5.999-1.684-31.3-22.111-58.496-50.166-65.944-22.435-5.954-47.189-.123-70.962,5.887ZM739.517,838.736c.279-.457.87-.624,1.338-.357l7.794,4.516c24.843,14.719,51.348,26.75,78.779,35.76.513.167.792.714.624,1.227-.123.368-.435.613-.792.658-.145.022-.29.011-.435-.033-27.575-9.054-54.203-21.141-79.158-35.938l-7.794-4.494c-.457-.268-.624-.87-.357-1.338Z" style="fill: #76d68d;"/>
        <path d="M953.728,1220.527c-23.107,26.151-31.847,61.454-22.913,92.599,2.887,10.064,7.719,19.952,16.252,26.951,8.143,6.678,19.167,10.259,30.4,11.39,2.717.27,5.452.407,8.194.431,22.877-21.419,30.564-54.56,18.217-80.827-9.869-21.004-30.26-36.208-50.149-50.544ZM956.519,1243.597c.529-.092,1.033.261,1.128.789l1.566,8.87c4.703,28.491,12.541,56.526,23.294,83.325.201.499-.042,1.066-.539,1.265-.357.144-.746.061-1.013-.179-.108-.097-.195-.218-.253-.362-10.806-26.931-18.683-55.102-23.407-83.722l-1.565-8.859c-.094-.528.259-1.034.789-1.128Z" style="fill: #76d68d;"/>
        <path d="M801.782,1234.188c-5.087,34.524,6.859,68.875,31.345,90.095,7.913,6.857,17.359,12.504,28.328,13.711,10.468,1.151,21.66-1.866,31.689-7.05,2.424-1.256,4.79-2.635,7.101-4.111,7.477-30.434-4.171-62.398-28.855-77.667-19.734-12.212-45.118-13.822-69.608-14.977ZM816.713,1251.995c.393-.366,1.008-.345,1.376.046l6.154,6.577c19.492,21.306,41.362,40.517,65,57.102.44.308.547.916.239,1.355-.22.315-.592.458-.947.403-.144-.022-.283-.076-.41-.165-23.754-16.667-45.731-35.972-65.311-57.373l-6.147-6.569c-.368-.391-.347-1.008.046-1.376Z" style="fill: #76d68d;"/>
        <path d="M579.297,1494.074c15.687,31.173,45.21,52.411,77.444,55.696,10.417,1.061,21.392.251,31.061-5.068,9.226-5.076,16.649-13.979,21.875-23.987,1.261-2.422,2.404-4.91,3.447-7.446-11.379-29.2-39.287-48.657-68.262-46.959-23.167,1.354-44.862,14.63-65.565,27.765ZM601.752,1500.059c.111-.525.626-.862,1.152-.753l8.816,1.843c28.198,6.226,57.137,9.372,86.013,9.352.538,0,.974.435.974.971.001.385-.221.715-.543.874-.131.064-.275.1-.43.101-29.018.02-58.098-3.141-86.423-9.395l-8.806-1.841c-.526-.109-.864-.625-.753-1.152Z" style="fill: #76d68d;"/>
        <path d="M351.179,1243.583c-8.111,33.941.759,69.212,23.279,92.508,7.277,7.528,16.188,13.986,27.009,16.155,10.325,2.069,21.74.052,32.187-4.228,2.525-1.038,5.004-2.202,7.436-3.469,10.132-29.656,1.347-62.523-21.894-79.909-18.58-13.904-43.724-17.746-68.017-21.057ZM364.482,1262.637c.423-.33,1.034-.255,1.366.167l5.55,7.094c17.537,22.942,37.628,44.007,59.711,62.612.412.346.464.96.118,1.37-.247.295-.63.404-.978.318-.141-.035-.275-.101-.393-.2-22.192-18.696-42.381-39.864-59.997-62.909l-5.543-7.085c-.332-.422-.257-1.035.167-1.366Z" style="fill: #76d68d;"/>
        <path d="M282.133,968.305c.903,10.426,3.747,21.063,10.782,29.571,6.713,8.106,16.837,13.737,27.653,17.005,2.609.792,5.263,1.45,7.95,1.996,26.561-16.625,40.465-47.68,33.396-75.824-5.665-22.513-22.747-41.346-39.518-59.232-27.698,21.231-43.052,54.203-40.265,86.484ZM319.554,914.95l.156-8.998c.011-.535.457-.959.992-.948s.97.446.959.992l-.167,8.998c-.847,28.869,1.461,57.882,6.869,86.249.1.524-.245,1.037-.769,1.137-.379.067-.747-.089-.959-.368-.089-.123-.145-.257-.178-.401-5.441-28.512-7.761-57.671-6.902-86.662Z" style="fill: #76d68d;"/>
        <path d="M443.194,756.255c.903,10.426,3.747,21.063,10.782,29.571,6.713,8.106,16.837,13.737,27.653,17.005,2.609.792,5.263,1.45,7.95,1.996,26.561-16.625,40.465-47.68,33.396-75.824-5.665-22.513-22.747-41.346-39.518-59.232-27.698,21.231-43.052,54.203-40.265,86.484ZM480.615,702.899l.156-8.998c.011-.535.457-.959.992-.948s.97.446.959.992l-.167,8.998c-.847,28.869,1.461,57.882,6.869,86.249.1.524-.245,1.037-.769,1.137-.379.067-.747-.089-.959-.368-.089-.123-.145-.257-.178-.401-5.441-28.512-7.761-57.671-6.902-86.662Z" style="fill: #76d68d;"/>
        <path d="M557.083,647.426c2.821,10.136,9.768,19.402,18.32,26.795,2.052,1.795,4.215,3.479,6.445,5.074,31.032-4.36,56.388-27.051,61.406-55.63,4.003-22.859-3.914-47.022-11.942-70.193-33.942,8.095-61.406,31.946-72.021,62.555-3.423,9.891-5.163,20.762-2.208,31.4ZM586.186,664.508c6.657-28.256,16.425-55.82,29.025-81.945l3.813-8.151c.223-.491.814-.691,1.294-.468.479.234.702.803.468,1.305l-3.825,8.14c-12.533,26.025-22.257,53.456-28.88,81.566-.123.513-.647.847-1.171.725-.368-.1-.647-.39-.725-.736-.033-.145-.033-.29,0-.435Z" style="fill: #76d68d;"/>
        <path d="M430.754,584.514c2.821,10.136,9.768,19.402,18.32,26.795,2.052,1.795,4.215,3.479,6.445,5.074,31.032-4.36,56.388-27.051,61.406-55.63,4.003-22.859-3.914-47.022-11.942-70.193-33.942,8.095-61.406,31.946-72.021,62.555-3.423,9.891-5.163,20.762-2.208,31.4ZM459.857,601.597c6.657-28.256,16.425-55.82,29.025-81.945l3.813-8.151c.223-.491.814-.691,1.294-.468.479.234.702.803.468,1.305l-3.825,8.14c-12.533,26.025-22.257,53.456-28.88,81.566-.123.513-.647.847-1.171.725-.368-.1-.647-.39-.725-.736-.033-.145-.033-.29,0-.435Z" style="fill: #76d68d;"/>
        <path d="M318.92,716.732c-3.273,9.94-4.847,20.838-1.727,31.428,2.98,10.094,10.071,19.256,18.728,26.517,2.087,1.755,4.268,3.404,6.523,4.964,30.96-4.829,55.966-27.904,60.545-56.558,3.654-22.925-4.637-46.962-13.014-70.005-33.819,8.615-60.912,32.882-71.055,63.654ZM374.322,682.412l3.685-8.211c.221-.488.798-.702,1.285-.481s.716.792.491,1.29l-3.696,8.206c-12.142,26.205-21.44,53.785-27.634,81.991-.114.521-.634.857-1.155.743-.375-.088-.652-.376-.737-.716-.034-.148-.032-.293-.006-.439,6.22-28.352,15.565-56.07,27.766-82.383Z" style="fill: #76d68d;"/>
        <path d="M410.073,1384.458c-5.344,34.486,6.345,68.925,30.673,90.326,7.862,6.916,17.265,12.633,28.225,13.921,10.459,1.229,21.673-1.704,31.741-6.814,2.433-1.238,4.81-2.599,7.131-4.058,7.704-30.377-3.706-62.427-28.275-77.88-19.642-12.358-45.014-14.158-69.495-15.496ZM424.871,1402.376c.395-.363,1.01-.338,1.375.056l6.105,6.623c19.333,21.451,41.059,40.824,64.572,57.586.438.312.54.92.228,1.356-.223.314-.595.454-.95.396-.144-.023-.282-.079-.408-.168-23.629-16.843-45.461-36.312-64.881-57.859l-6.098-6.615c-.365-.394-.34-1.011.056-1.375Z" style="fill: #76d68d;"/>
        <path d="M398.013,999.203c-5.344,34.486,6.345,68.925,30.673,90.326,7.862,6.916,17.265,12.633,28.225,13.921,10.459,1.229,21.673-1.704,31.741-6.814,2.433-1.238,4.81-2.599,7.131-4.058,7.704-30.377-3.706-62.427-28.275-77.88-19.642-12.358-45.014-14.158-69.495-15.496ZM412.811,1017.12c.395-.363,1.01-.338,1.375.056l6.105,6.623c19.333,21.451,41.059,40.824,64.572,57.586.438.312.54.92.228,1.356-.223.314-.595.454-.95.396-.144-.023-.282-.079-.408-.168-23.629-16.843-45.461-36.312-64.881-57.859l-6.098-6.615c-.365-.394-.34-1.011.056-1.375Z" style="fill: #76d68d;"/>
        <path d="M701.839,744.157c3.412,9.891,8.753,19.525,17.629,26.07,8.486,6.244,19.681,9.244,30.954,9.79,2.732.134,5.464.123,8.207.011,21.732-22.58,27.687-56.076,13.994-81.667-10.95-20.461-32.102-34.589-52.709-47.869-21.71,27.308-28.612,63.023-18.075,93.665ZM723.906,673.384c.524-.123,1.037.201,1.16.725l2.029,8.775c6.177,28.211,15.455,55.797,27.586,82.001.234.491.011,1.07-.468,1.294-.346.167-.747.1-1.026-.123-.111-.089-.201-.212-.268-.346-12.187-26.338-21.521-54.058-27.72-82.391l-2.029-8.775c-.123-.513.212-1.037.736-1.16Z" style="fill: #76d68d;"/>
        <path d="M506.838,932.316c-5.344,34.486,6.345,68.925,30.673,90.326,7.862,6.916,17.265,12.633,28.225,13.921,10.459,1.229,21.673-1.704,31.741-6.814,2.433-1.238,4.81-2.599,7.131-4.058,7.704-30.377-3.706-62.427-28.275-77.88-19.642-12.358-45.014-14.158-69.495-15.496ZM521.636,950.234c.395-.363,1.01-.338,1.375.056l6.105,6.623c19.333,21.451,41.059,40.824,64.572,57.586.438.312.54.92.228,1.356-.223.314-.595.454-.95.396-.144-.023-.282-.079-.408-.168-23.629-16.843-45.461-36.312-64.881-57.859l-6.098-6.615c-.365-.394-.34-1.011.056-1.375Z" style="fill: #76d68d;"/>
        <path d="M525.14,1385.252c5.308,9.032,12.455,17.406,22.457,22.056,9.545,4.438,21.119,5.163,32.281,3.457,2.698-.413,5.375-.959,8.04-1.617,16.826-26.449,16.012-60.458-2.487-82.826-14.797-17.874-38.336-27.52-61.161-36.451-15.867,31.077-15.533,67.45.87,95.382ZM532.723,1311.513c.479-.223,1.059,0,1.282.491l3.724,8.196c11.652,26.427,26.226,51.616,43.32,74.898.323.435.223,1.037-.201,1.36-.312.223-.714.245-1.026.078-.134-.067-.245-.167-.346-.29-17.172-23.394-31.813-48.706-43.521-75.255l-3.724-8.184c-.223-.491,0-1.07.491-1.294Z" style="fill: #76d68d;"/>
        <path d="M275.476,1112.423c7.299,34.125,30.496,62.136,60.853,73.461,9.81,3.659,20.634,5.65,31.333,2.947,10.21-2.58,19.642-9.317,27.227-17.679,1.832-2.024,3.567-4.143,5.217-6.333-3.629-31.128-25.713-57.006-54.177-62.687-22.757-4.546-47.104,2.817-70.454,10.292ZM295.688,1123.889c.24-.48.824-.676,1.305-.438l8.064,4.012c25.709,13.151,52.913,23.509,80.856,30.788.52.135.832.667.697,1.186-.096.372-.395.636-.746.708-.143.029-.292.027-.441-.011-28.08-7.315-55.418-17.723-81.242-30.933l-8.055-4.007c-.481-.238-.678-.823-.438-1.305Z" style="fill: #76d68d;"/>
        <path d="M396.415,911.281c3.958,9.69,9.835,19.001,19.067,25.033,8.82,5.765,20.171,8.129,31.456,8.04,2.732-.022,5.464-.19,8.195-.457,20.428-23.762,24.487-57.537,9.378-82.325-12.087-19.815-33.998-32.727-55.318-44.825-20.149,28.49-25.022,64.528-12.778,94.534ZM414.456,839.382c.524-.156,1.059.145,1.204.658l2.52,8.653c7.75,27.809,18.577,54.838,32.158,80.317.256.48.078,1.059-.401,1.316-.335.178-.736.145-1.026-.067-.111-.089-.212-.201-.29-.335-13.648-25.602-24.52-52.764-32.314-80.697l-2.509-8.642c-.156-.513.145-1.059.658-1.204Z" style="fill: #76d68d;"/>
        <path d="M527.006,1195.844c2.77,10.103,7.488,20.051,15.932,27.147,8.058,6.772,19.043,10.489,30.264,11.751,2.713.305,5.439.475,8.183.535,23.139-21.149,31.217-54.195,19.189-80.611-9.626-21.113-29.837-36.561-49.545-51.133-23.419,25.866-32.577,61.069-24.022,92.311ZM553.546,1126.631c.521-.09,1.023.276,1.11.808l1.459,8.883c4.361,28.55,11.865,56.668,22.299,83.601.199.504-.055,1.059-.548,1.261-.36.134-.753.051-1.011-.192-.112-.099-.193-.225-.258-.37-10.48-27.061-18.017-55.314-22.4-83.998l-1.462-8.872c-.087-.532.279-1.033.811-1.121Z" style="fill: #76d68d;"/>
        <path d="M974.427,1028.378c-28.532,20.094-45.205,52.416-43.721,84.783.48,10.459,2.892,21.197,9.574,29.98,6.376,8.381,16.272,14.417,26.939,18.116,2.581.892,5.21,1.658,7.871,2.316,27.213-15.543,42.361-46.005,36.427-74.417-4.741-22.717-21.059-42.228-37.091-60.778ZM971.804,1051.468c.535.033.945.493.914,1.029l-.529,8.992c-2.019,28.806-.881,57.894,3.378,86.454.08.532-.287,1.027-.818,1.106-.38.057-.74-.114-.944-.409-.083-.12-.139-.258-.163-.41-4.28-28.7-5.424-57.93-3.396-86.866l.528-8.981c.03-.536.492-.946,1.029-.914Z" style="fill: #76d68d;"/>
        <path d="M1671.853,872.716c0,8.977-6.416,16.529-15.017,17.822-30.693,4.598-97.741,29.776-97.741,161.923v176.807c0,270.329-154.194,347.345-334.283,360.649-34.719,2.565-61.304,31.938-60.26,66.736,1.35,45.007,3.427,76.572,6.601,105.496,3.337,30.457,7.646,61.557,21.84,88.709,11.539,22.06,30.927,41.276,54.186,48.851,9.87,3.22,16.662,12.275,16.662,22.663v.141c0,13.109-10.627,23.736-23.736,23.736h-286.886c-13.109,0-23.736-10.627-23.736-23.736v-.141c0-10.388,6.8-19.443,16.662-22.663,23.258-7.575,42.647-26.791,54.186-48.851,14.202-27.152,18.511-58.252,21.848-88.709,3.174-28.924,5.251-60.488,6.601-105.494,1.044-34.798-25.542-64.172-60.261-66.736-180.094-13.3-334.289-90.321-334.289-360.651v-176.807c0-132.147-67.049-157.324-97.741-161.923-8.601-1.293-15.017-8.844-15.017-17.822,0-4.974,1.951-9.471,5.1-12.722,3.157-3.259,7.513-5.272,12.322-5.272h79.434c65.051,0,159.181,26.368,159.181,206.269s-39.192,477.112,253.162,479.219c.87-113.628.47-284.309.47-560.666,0-65.639-57.429-83.123-85.951-87.761-4.528-.729-8.453-3.047-11.249-6.322-2.797-3.274-4.457-7.505-4.457-12.087,0-10.301,8.343-18.652,18.652-18.652h296.671c9.855,0,18.301,7.493,18.989,17.324.356,5.09-1.355,9.827-4.411,13.415-2.789,3.274-6.713,5.593-11.234,6.322-28.538,4.638-85.959,22.122-85.959,87.761,0,276.358-.4,447.038.462,560.666,292.354-2.107,253.162-299.945,253.162-479.219s94.13-206.269,159.181-206.269h79.434c4.81,0,9.165,2.013,12.322,5.272,3.149,3.251,5.1,7.748,5.1,12.722Z" style="fill: #353535;"/>
      </g>
    </g>
  </g>
</svg>